<?xml version="1.0" standalone="no"?>
<!DOCTYPE svg PUBLIC "-//W3C//DTD SVG 20010904//EN"
 "http://www.w3.org/TR/2001/REC-SVG-20010904/DTD/svg10.dtd">
<svg version="1.0" xmlns="http://www.w3.org/2000/svg"
 width="512.000000pt" height="512.000000pt" viewBox="0 0 512.000000 512.000000"
 preserveAspectRatio="xMidYMid meet">
<metadata>
Created by potrace 1.14, written by Peter Selinger 2001-2017
</metadata>
<g transform="translate(0.000000,512.000000) scale(0.100000,-0.100000)"
fill="#000000" stroke="none">
<path d="M0 2560 l0 -2560 2560 0 2560 0 0 2560 0 2560 -2560 0 -2560 0 0
-2560z m2878 874 c245 -49 371 -203 372 -454 0 -106 -103 -700 -141 -812 -83
-243 -223 -384 -454 -454 -85 -26 -101 -28 -285 -28 -217 -1 -276 9 -383 66
-154 82 -224 250 -198 481 17 145 108 645 131 717 43 130 90 210 176 297 108
110 192 151 409 196 54 12 301 6 373 -9z m-1913 -436 c82 -243 150 -437 152
-432 3 10 153 862 153 869 0 3 97 5 215 5 129 0 215 -4 215 -9 0 -12 -276
-1592 -291 -1668 l-10 -53 -217 0 -217 0 -150 469 c-82 259 -150 469 -151 468
-1 -1 -34 -189 -73 -417 -40 -228 -76 -439 -82 -467 l-10 -53 -215 0 c-150 0
-214 3 -214 11 0 6 68 393 150 861 83 467 150 851 150 854 0 2 100 4 223 4
l223 0 149 -442z m3057 167 c53 -148 98 -274 100 -279 2 -4 100 117 218 270
l215 279 243 3 c133 1 242 -1 242 -5 0 -5 -151 -201 -335 -437 l-334 -430 13
-30 c8 -17 89 -204 181 -416 92 -212 169 -391 172 -398 4 -10 -45 -12 -241
-10 l-247 3 -116 274 c-103 241 -119 271 -130 255 -7 -11 -95 -134 -196 -274
l-183 -255 -248 -3 -249 -2 25 32 c145 191 608 820 608 827 0 5 -72 198 -160
429 -88 232 -160 426 -160 432 0 7 78 9 243 8 l242 -3 97 -270z"/>
<path d="M2520 3071 c-80 -25 -147 -90 -179 -175 -26 -71 -113 -565 -114 -656
-2 -93 18 -134 83 -168 39 -20 56 -23 131 -20 71 3 93 9 132 31 57 34 92 78
117 149 28 81 113 562 114 648 1 137 -62 201 -195 199 -35 0 -75 -4 -89 -8z"/>
</g>
</svg>
